<svg id="svg" version="1.1" width="400" height="266.6666666666667" viewBox="0 0 400 266.6666666666667" xmlns="http://www.w3.org/2000/svg" xmlns:xlink="http://www.w3.org/1999/xlink"><g id="svgg"><path id="path0" d="M187.630 64.104 C 186.991 64.455,184.896 66.444,184.896 66.700 C 184.896 66.802,183.560 70.147,181.928 74.133 C 180.295 78.119,176.418 87.591,173.311 95.182 C 170.204 102.773,167.039 110.449,166.279 112.240 C 164.932 115.410,160.067 127.148,159.614 128.320 L 159.388 128.906 171.165 128.903 L 182.943 128.901 183.690 126.885 C 184.101 125.777,185.293 122.702,186.339 120.052 C 191.010 108.223,195.522 96.553,198.773 87.891 C 202.305 78.481,207.723 64.418,207.971 64.017 C 208.180 63.678,188.250 63.764,187.630 64.104 M232.707 83.226 C 231.432 83.576,228.327 84.276,225.806 84.783 C 205.100 88.943,197.147 96.069,198.553 109.201 L 198.737 110.914 200.177 109.298 C 200.969 108.409,202.522 106.862,203.628 105.859 C 204.735 104.857,205.865 103.810,206.141 103.534 C 208.796 100.865,214.362 97.155,219.727 94.476 C 224.370 92.157,224.649 92.318,220.563 94.959 C 207.267 103.555,197.249 113.617,191.173 124.476 C 188.482 129.287,188.376 128.906,192.409 128.906 L 195.755 128.906 196.487 127.148 C 197.415 124.922,199.505 120.971,200.980 118.654 L 202.119 116.866 203.469 117.001 C 204.211 117.076,205.814 117.276,207.031 117.446 C 218.787 119.083,229.622 109.777,233.712 94.531 C 234.807 90.449,235.809 82.514,235.221 82.571 C 235.114 82.582,233.983 82.876,232.707 83.226 M222.513 138.908 C 219.903 140.045,219.520 144.052,221.900 145.326 C 223.566 146.218,227.374 145.522,228.265 144.163 C 230.365 140.958,226.311 137.254,222.513 138.908 M145.961 139.903 C 145.707 140.603,141.810 151.650,140.242 156.120 C 139.337 158.698,137.647 163.424,136.486 166.622 C 135.325 169.821,134.375 172.487,134.375 172.547 C 134.375 172.607,136.182 172.656,138.390 172.656 L 142.405 172.656 143.685 168.815 L 144.965 164.974 150.728 164.904 L 156.491 164.834 157.738 168.742 L 158.984 172.650 163.244 172.653 C 166.542 172.656,167.477 172.583,167.385 172.331 C 166.850 170.862,164.146 163.179,162.093 157.292 C 159.943 151.129,158.753 147.796,156.277 141.016 L 155.802 139.714 150.942 139.643 C 147.194 139.588,146.054 139.648,145.961 139.903 M151.814 149.548 C 152.310 151.157,153.198 153.968,153.788 155.794 L 154.859 159.115 150.764 159.115 L 146.668 159.115 148.068 154.753 C 148.838 152.354,149.722 149.541,150.032 148.503 C 150.754 146.089,150.745 146.084,151.814 149.548 M177.734 148.472 C 165.528 150.694,165.570 171.087,177.783 172.277 C 180.417 172.534,182.930 171.897,184.653 170.535 L 185.938 169.519 185.930 171.283 C 185.908 176.624,180.237 178.436,173.202 175.350 C 172.428 175.011,171.775 174.764,171.752 174.801 C 171.697 174.887,170.821 178.796,170.652 179.708 C 170.305 181.572,181.362 182.775,185.938 181.371 C 192.927 179.227,193.760 176.888,193.674 159.635 L 193.620 148.828 190.069 148.756 L 186.518 148.684 186.358 149.323 L 186.197 149.963 185.091 149.350 C 183.230 148.318,180.420 147.983,177.734 148.472 M212.240 148.681 C 210.953 149.074,209.441 149.986,208.182 151.128 L 206.901 152.291 206.641 150.559 L 206.380 148.828 202.761 148.755 L 199.142 148.683 199.309 150.448 C 199.400 151.419,199.476 156.813,199.477 162.435 L 199.479 172.656 203.240 172.656 L 207.002 172.656 207.081 165.248 L 207.161 157.841 208.073 156.883 C 209.846 155.022,212.561 154.444,215.250 155.357 C 216.752 155.867,216.605 156.183,216.699 152.237 C 216.774 149.095,216.746 148.861,216.267 148.674 C 215.612 148.418,213.087 148.422,212.240 148.681 M220.573 160.677 L 220.573 172.656 224.479 172.656 L 228.385 172.656 228.385 160.677 L 228.385 148.698 224.479 148.698 L 220.573 148.698 220.573 160.677 M184.635 153.743 L 185.807 154.094 185.878 159.312 L 185.948 164.530 184.741 165.592 C 181.015 168.872,176.875 166.508,176.613 160.951 C 176.341 155.169,179.601 152.239,184.635 153.743 " stroke="none" fill="#177b1f" fill-rule="evenodd"></path><path id="path1" d="M0.000 133.333 L 0.000 266.667 200.000 266.667 L 400.000 266.667 400.000 133.333 L 400.000 0.000 200.000 0.000 L 0.000 0.000 0.000 133.333 M208.073 63.767 C 208.073 63.891,206.730 67.457,205.088 71.690 C 203.447 75.924,200.622 83.352,198.810 88.196 C 196.998 93.041,194.228 100.286,192.655 104.297 C 184.916 124.017,183.643 127.286,183.350 128.190 L 183.033 129.167 171.080 129.167 L 159.127 129.167 159.355 128.569 C 159.480 128.240,160.649 125.426,161.953 122.315 C 163.256 119.204,164.323 116.605,164.323 116.539 C 164.323 116.473,165.012 114.805,165.855 112.832 C 166.697 110.859,168.638 106.198,170.168 102.474 C 171.698 98.750,173.700 93.887,174.616 91.667 C 178.868 81.365,184.192 68.275,184.454 67.478 C 184.870 66.214,186.666 64.359,187.891 63.930 C 189.083 63.512,208.073 63.359,208.073 63.767 M210.647 65.106 C 210.819 65.680,211.787 68.111,212.800 70.509 C 217.345 81.279,217.987 82.896,217.789 83.065 C 217.673 83.164,216.816 83.449,215.885 83.698 C 211.606 84.844,206.645 87.220,204.142 89.323 L 202.944 90.328 202.121 88.328 C 201.096 85.838,200.937 86.754,203.483 80.493 C 204.683 77.544,206.638 72.640,207.827 69.596 C 210.174 63.591,210.187 63.570,210.647 65.106 M235.481 84.180 C 234.572 104.999,220.625 120.674,205.859 117.470 C 205.286 117.345,204.232 117.172,203.515 117.085 L 202.213 116.926 201.090 118.685 C 199.892 120.561,196.637 126.913,196.152 128.320 L 195.860 129.167 192.331 129.167 C 188.320 129.167,188.468 129.295,189.686 126.882 C 195.868 114.632,209.214 101.081,222.526 93.540 C 222.813 93.378,222.957 93.241,222.847 93.237 C 222.449 93.221,216.991 96.084,214.323 97.708 C 210.384 100.106,206.381 103.322,202.252 107.404 C 200.267 109.365,198.587 110.913,198.517 110.843 C 198.256 110.582,198.215 104.757,198.464 103.264 C 199.994 94.088,208.502 87.964,223.828 85.009 C 225.833 84.622,229.232 83.864,231.380 83.324 C 233.529 82.784,235.349 82.331,235.425 82.317 C 235.501 82.303,235.527 83.141,235.481 84.180 M231.696 113.484 C 232.443 115.163,234.288 119.278,235.798 122.628 C 237.307 125.978,238.541 128.791,238.540 128.878 C 238.540 128.965,233.981 129.061,228.411 129.091 L 218.282 129.145 216.433 124.951 C 214.210 119.911,214.220 120.487,216.341 119.918 C 220.266 118.865,225.432 115.583,228.371 112.277 C 230.410 109.983,230.087 109.865,231.696 113.484 M226.938 138.942 C 228.672 139.765,229.413 142.244,228.447 143.990 C 226.911 146.770,221.537 146.522,220.429 143.621 C 219.030 139.957,223.025 137.086,226.938 138.942 M156.458 141.081 C 163.672 161.147,167.662 172.616,167.490 172.788 C 167.419 172.859,165.457 172.917,163.129 172.917 L 158.896 172.917 158.314 170.956 C 157.994 169.878,157.428 168.091,157.056 166.985 L 156.380 164.974 150.750 164.904 L 145.119 164.834 143.840 168.810 L 142.561 172.786 138.307 172.858 C 134.324 172.925,134.065 172.901,134.233 172.468 C 134.784 171.042,145.569 140.707,145.762 140.039 C 145.882 139.625,146.357 139.583,150.907 139.583 L 155.920 139.583 156.458 141.081 M243.229 153.125 L 243.229 166.667 251.823 166.667 C 259.839 166.667,260.416 166.697,260.404 167.122 C 260.397 167.373,260.124 168.750,259.798 170.182 L 259.204 172.786 246.985 172.786 L 234.766 172.786 234.699 156.185 L 234.632 139.583 238.930 139.583 L 243.229 139.583 243.229 153.125 M148.846 152.799 C 147.862 155.915,147.004 158.610,146.938 158.789 C 146.846 159.040,147.722 159.115,150.781 159.115 C 154.226 159.115,154.723 159.063,154.591 158.717 C 154.372 158.146,151.655 149.558,151.277 148.242 C 150.809 146.612,150.788 146.651,148.846 152.799 M182.627 148.295 C 183.456 148.493,184.587 148.891,185.140 149.180 C 186.130 149.696,186.149 149.696,186.278 149.201 C 186.400 148.734,186.671 148.698,190.080 148.698 L 193.750 148.698 193.750 160.430 C 193.750 173.372,193.649 174.441,192.176 177.020 C 189.789 181.198,183.220 183.168,175.920 181.895 C 174.050 181.569,170.651 180.624,170.372 180.353 C 170.279 180.262,171.565 174.962,171.719 174.809 C 171.785 174.743,172.579 174.982,173.484 175.340 C 180.582 178.147,185.461 176.620,185.875 171.462 C 186.030 169.529,185.953 169.482,184.613 170.693 C 180.298 174.590,171.716 172.056,169.541 166.242 C 165.716 156.020,173.022 146.000,182.627 148.295 M216.107 148.463 L 216.927 148.749 216.927 151.555 C 216.927 155.077,216.750 156.085,216.176 155.836 C 213.677 154.754,210.898 154.884,209.044 156.169 C 207.308 157.371,207.292 157.462,207.292 165.612 L 207.292 172.917 203.255 172.917 L 199.219 172.917 199.216 162.174 C 199.215 156.266,199.140 150.817,199.050 150.065 L 198.886 148.698 202.686 148.698 L 206.487 148.698 206.646 149.674 C 206.734 150.212,206.862 150.956,206.931 151.330 L 207.056 152.009 207.890 151.229 C 210.610 148.686,213.732 147.635,216.107 148.463 M228.646 160.807 L 228.646 172.917 224.614 172.917 L 220.583 172.917 220.513 160.807 L 220.443 148.698 224.544 148.698 L 228.646 148.698 228.646 160.807 M180.990 153.541 C 177.853 154.666,176.760 156.469,176.744 160.547 C 176.721 166.339,181.290 168.947,184.961 165.236 L 185.677 164.512 185.677 159.360 L 185.677 154.207 184.831 153.936 C 183.750 153.590,181.498 153.359,180.990 153.541 " stroke="none" fill="#fbfbfb" fill-rule="evenodd"></path><path id="path2" d="M234.896 156.120 L 234.896 172.656 246.984 172.656 L 259.072 172.656 259.634 170.117 C 259.943 168.721,260.254 167.373,260.324 167.122 C 260.444 166.695,259.911 166.667,251.710 166.667 L 242.969 166.667 242.969 153.125 L 242.969 139.583 238.932 139.583 L 234.896 139.583 234.896 156.120 " stroke="none" fill="#e96810" fill-rule="evenodd"></path><path id="path3" d="M207.827 69.596 C 206.638 72.640,204.683 77.544,203.483 80.493 C 200.937 86.754,201.096 85.838,202.121 88.328 L 202.944 90.328 204.142 89.323 C 206.645 87.220,211.606 84.844,215.885 83.698 C 216.816 83.449,217.673 83.164,217.789 83.065 C 217.987 82.896,217.345 81.279,212.800 70.509 C 211.787 68.111,210.819 65.680,210.647 65.106 C 210.187 63.570,210.174 63.591,207.827 69.596 M202.458 109.440 L 201.693 110.286 202.539 109.522 C 203.005 109.101,203.385 108.720,203.385 108.675 C 203.385 108.474,203.171 108.651,202.458 109.440 M228.371 112.277 C 225.432 115.583,220.266 118.865,216.341 119.918 C 214.220 120.487,214.210 119.911,216.433 124.951 L 218.282 129.145 228.411 129.091 C 233.981 129.061,238.540 128.965,238.540 128.878 C 238.541 128.791,237.307 125.978,235.798 122.628 C 234.288 119.278,232.443 115.163,231.696 113.484 C 230.087 109.865,230.410 109.983,228.371 112.277 M234.763 156.250 L 234.766 172.786 247.002 172.786 C 259.046 172.786,259.238 172.778,259.291 172.266 C 259.333 171.861,259.315 171.846,259.211 172.201 C 259.085 172.626,258.276 172.656,246.988 172.656 L 234.900 172.656 234.830 156.185 L 234.760 139.714 234.763 156.250 M243.090 153.125 C 243.090 160.645,243.123 163.721,243.164 159.961 C 243.205 156.201,243.205 150.049,243.164 146.289 C 243.123 142.529,243.090 145.605,243.090 153.125 M179.883 148.100 C 180.205 148.163,180.732 148.163,181.055 148.100 C 181.377 148.038,181.113 147.988,180.469 147.988 C 179.824 147.988,179.561 148.038,179.883 148.100 " stroke="none" fill="#f3dbb3" fill-rule="evenodd"></path><path id="path4" d="M193.555 63.737 C 196.240 63.779,200.635 63.779,203.320 63.737 C 206.006 63.694,203.809 63.660,198.438 63.660 C 193.066 63.660,190.869 63.694,193.555 63.737 M185.791 65.430 L 185.026 66.276 185.872 65.511 C 186.338 65.090,186.719 64.710,186.719 64.665 C 186.719 64.464,186.504 64.641,185.791 65.430 M215.299 96.764 C 214.326 97.292,214.385 97.512,215.365 97.005 C 215.794 96.783,216.146 96.546,216.146 96.478 C 216.146 96.310,216.118 96.320,215.299 96.764 M212.565 98.467 C 211.677 99.036,211.390 99.418,212.174 98.987 C 212.772 98.658,213.708 97.934,213.542 97.929 C 213.470 97.927,213.031 98.169,212.565 98.467 M198.258 106.641 C 198.259 107.500,198.308 107.820,198.366 107.352 C 198.424 106.884,198.423 106.181,198.363 105.790 C 198.304 105.398,198.256 105.781,198.258 106.641 M200.521 111.328 C 199.888 111.973,199.429 112.500,199.501 112.500 C 199.573 112.500,200.149 111.973,200.781 111.328 C 201.414 110.684,201.873 110.156,201.801 110.156 C 201.730 110.156,201.153 110.684,200.521 111.328 M206.836 117.627 C 207.087 117.693,207.497 117.693,207.747 117.627 C 207.998 117.562,207.793 117.508,207.292 117.508 C 206.790 117.508,206.585 117.562,206.836 117.627 M195.833 128.617 C 195.833 128.855,194.955 128.915,192.317 128.855 C 190.383 128.812,188.801 128.864,188.802 128.971 C 188.802 129.287,195.778 129.207,195.974 128.889 C 196.069 128.736,196.076 128.541,195.990 128.455 C 195.904 128.369,195.833 128.442,195.833 128.617 M165.317 129.101 C 168.657 129.143,174.048 129.143,177.297 129.101 C 180.545 129.060,177.813 129.026,171.224 129.026 C 164.635 129.026,161.977 129.060,165.317 129.101 M199.019 149.479 C 199.019 149.980,199.072 150.186,199.138 149.935 C 199.203 149.684,199.203 149.274,199.138 149.023 C 199.072 148.773,199.019 148.978,199.019 149.479 M228.473 150.521 C 228.473 151.595,228.519 152.035,228.575 151.497 C 228.631 150.960,228.631 150.081,228.575 149.544 C 228.519 149.007,228.473 149.447,228.473 150.521 M216.759 151.953 C 216.758 153.242,216.802 153.802,216.857 153.198 C 216.912 152.594,216.912 151.539,216.858 150.854 C 216.805 150.170,216.760 150.664,216.759 151.953 M199.281 161.921 L 199.219 172.930 203.190 172.858 L 207.161 172.786 207.168 165.625 L 207.174 158.464 207.099 165.560 L 207.023 172.656 203.254 172.656 L 199.485 172.656 199.414 161.784 L 199.343 150.911 199.281 161.921 M228.447 163.079 L 228.385 172.643 224.414 172.722 L 220.443 172.801 224.422 172.859 C 227.417 172.902,228.433 172.836,228.527 172.590 C 228.596 172.410,228.620 168.045,228.581 162.889 L 228.509 153.516 228.447 163.079 M185.362 154.104 C 185.622 154.287,185.681 155.527,185.623 159.580 C 185.581 162.461,185.637 164.728,185.748 164.617 C 186.160 164.204,185.845 154.090,185.417 153.973 C 185.117 153.891,185.104 153.922,185.362 154.104 M168.570 160.547 C 168.572 161.406,168.620 161.726,168.678 161.258 C 168.736 160.790,168.735 160.087,168.676 159.696 C 168.616 159.305,168.569 159.688,168.570 160.547 M193.573 161.979 C 193.573 162.910,193.620 163.291,193.678 162.826 C 193.736 162.360,193.736 161.598,193.678 161.133 C 193.620 160.667,193.573 161.048,193.573 161.979 M142.448 172.365 C 142.448 172.603,141.424 172.662,138.306 172.604 C 136.027 172.561,134.218 172.614,134.285 172.721 C 134.480 173.037,142.392 172.958,142.589 172.639 C 142.683 172.486,142.690 172.291,142.604 172.205 C 142.518 172.119,142.448 172.191,142.448 172.365 M161.015 172.850 C 162.276 172.898,164.268 172.898,165.442 172.850 C 166.617 172.802,165.586 172.763,163.151 172.763 C 160.716 172.763,159.755 172.802,161.015 172.850 M178.841 182.222 C 179.450 182.277,180.446 182.277,181.055 182.222 C 181.663 182.167,181.165 182.122,179.948 182.122 C 178.730 182.122,178.232 182.167,178.841 182.222 " stroke="none" fill="#97c8a1" fill-rule="evenodd"></path></g></svg>